HIERARCHY
ROOT Hips
{
	OFFSET 0.000000 0.000000 0.000000 
	CHANNELS 6 Xposition Yposition Zposition Yrotation Zrotation Xrotation 
	JOINT Lumbar
	{
		OFFSET 0.000000 0.000000 0.000000 
		CHANNELS 3 Zrotation Xrotation Yrotation
		JOINT Neck
		{
			OFFSET 0.000000 0.445665 0.000000 
			CHANNELS 3 Zrotation Xrotation Yrotation
			End Site
			{
				OFFSET 0.000000 0.227535 0.000000 
			}
		}
		JOINT RightShoulder
		{
			OFFSET 0.019635 0.377685 0.194865 
			CHANNELS 3 Zrotation Xrotation Yrotation
			JOINT RightElbow
			{
				OFFSET 0.000000 -0.243375 0.000000 
				CHANNELS 2 Zrotation Yrotation
				JOINT RightWrist
				{
					OFFSET 0.000000 -0.264825 0.000000 
					CHANNELS 2 Zrotation Xrotation
					End Site
					{
						OFFSET 0.006600 -0.176220 0.000990 
					}
				}
			}
		}
		JOINT LeftShoulder
		{
			OFFSET 0.019635 0.377685 -0.194865 
			CHANNELS 3 Zrotation Xrotation Yrotation
			JOINT LeftElbow
			{
				OFFSET 0.000000 -0.243375 0.000000 
				CHANNELS 2 Zrotation Yrotation
				JOINT LeftWrist
				{
					OFFSET 0.000000 -0.264825 0.000000 
					CHANNELS 2 Zrotation Xrotation
					End Site
					{
						OFFSET 0.006600 -0.176220 -0.000990 
					}
				}
			}
		}
	}
	JOINT RightHip
	{
		OFFSET 0.052140 -0.069960 0.075570 
		CHANNELS 3 Zrotation Xrotation Yrotation
		JOINT RightKnee
		{
			OFFSET 0.000000 -0.402270 0.000000 
			CHANNELS 1 Zrotation
			JOINT RightAnkle
			{
				OFFSET 0.000000 -0.404085 0.000000 
				CHANNELS 3 Zrotation Xrotation Yrotation
				End Site
				{
					OFFSET 0.204105 -0.089430 0.008415 
				}
			}
		}
	}
	JOINT LeftHip
	{
		OFFSET 0.052140 -0.069960 -0.075570 
		CHANNELS 3 Zrotation Xrotation Yrotation
		JOINT LeftKnee
		{
			OFFSET 0.000000 -0.402270 0.000000 
			CHANNELS 1 Zrotation
			JOINT LeftAnkle
			{
				OFFSET 0.000000 -0.404085 0.000000 
				CHANNELS 3 Zrotation Xrotation Yrotation
				End Site
				{
					OFFSET 0.204105 -0.089430 -0.008415 
				}
			}
		}
	}
}
MOTION
Frames: 33
Frame Time: 0.02
0.00158 0.00271 0.00105 -133.32126 -25.58767 1.2892 41.6779 -0.89057 -8.04085 -16.31837 7.70481 -0.39879 -22.33527 -5.85352 -10.01949 29.67254 97.18974 8.8426 1.04979 -24.98093 4.14772 8.53381 32.1864 -107.64132 17.53821 -1.17432 27.01055 -2.41955 -2.89936 -20.39228 -7.49838 -5.46084 -3.56988 32.56372 3.11307 -1.14238 -24.33083 -6.57085 3.04473 2.20038
0.00015 0.00208 0.00163 -133.20095 -25.64115 1.3046 41.75824 -0.92612 -7.95323 -16.18969 7.70876 -0.39929 -22.1799 -5.75239 -9.86921 29.53955 97.10984 8.77936 1.05509 -24.9686 4.35516 7.84401 32.2651 -107.72946 17.55167 -1.18842 27.00178 -2.4161 -3.22483 -20.4152 -7.45497 -5.43627 -3.55598 32.58942 3.22009 -0.92974 -24.38008 -6.55875 3.00971 2.1813
-0.00128 0.00146 0.00222 -133.08098 -25.69449 1.32003 41.83848 -0.96161 -7.866 -16.06131 7.71247 -0.39978 -22.02531 -5.65166 -9.71891 29.40774 97.03021 8.71637 1.06038 -24.95638 4.56167 7.15741 32.34372 -107.82405 17.56706 -1.20358 26.99293 -2.41268 -3.54932 -20.43803 -7.41169 -5.41177 -3.54213 32.61491 3.3268 -0.71772 -24.42916 -6.54668 2.97479 2.16226
-0.00271 0.00084 0.0028 -132.96105 -25.74782 1.3354 41.91859 -0.99706 -7.77866 -15.933 7.71638 -0.40028 -21.87046 -5.55085 -9.56898 29.27529 96.95057 8.65334 1.06566 -24.94411 4.76839 6.47002 32.4222 -107.91351 17.58096 -1.21789 26.98418 -2.40924 -3.87378 -20.46088 -7.36842 -5.38728 -3.52827 32.64051 3.43348 -0.50574 -24.47825 -6.53462 2.93989 2.14324
-0.00414 0.00021 0.00338 -132.84077 -25.80126 1.3507 41.99876 -1.03257 -7.6909 -15.80444 7.7206 -0.40078 -21.71474 -5.4496 -9.41935 29.14137 96.87061 8.59001 1.07096 -24.93171 4.97623 5.77874 32.50071 -107.99263 17.59176 -1.2305 26.97552 -2.40578 -4.19925 -20.4838 -7.32503 -5.36272 -3.51438 32.66634 3.54046 -0.29309 -24.52753 -6.52252 2.90488 2.12416
-0.00557 -0.00041 0.00396 -132.72146 -25.85438 1.36642 42.07914 -1.06802 -7.60478 -15.67647 7.72323 -0.40128 -21.56255 -5.34998 -9.26771 29.014 96.79167 8.52773 1.07622 -24.91987 5.17999 5.10184 32.57956 -108.11888 17.61655 -1.25091 26.96627 -2.40243 -4.52171 -20.50645 -7.28199 -5.33835 -3.50061 32.69114 3.6466 -0.08239 -24.57618 -6.51053 2.87014 2.10522
-0.007 -0.00104 0.00455 -132.60037 -25.90811 1.38126 42.15901 -1.10354 -7.51546 -15.54743 7.72909 -0.40177 -21.40336 -5.24719 -9.12004 28.87359 96.71084 8.46349 1.08155 -24.90692 5.39147 4.39757 32.65759 -108.15393 17.61434 -1.2562 26.95827 -2.39885 -4.84974 -20.52963 -7.2383 -5.31362 -3.4866 32.718 3.7543 0.13186 -24.62604 -6.49833 2.83493 2.08604
-0.00843 -0.00166 0.00513 -132.48083 -25.96123 1.39693 42.23933 -1.13899 -7.42906 -15.4194 7.73193 -0.40227 -21.25074 -5.14734 -8.96914 28.74522 96.63164 8.40091 1.08683 -24.895 5.59631 3.71705 32.73649 -108.26618 17.63487 -1.27432 26.94903 -2.39551 -5.17285 -20.55232 -7.19519 -5.28922 -3.47281 32.74291 3.8606 0.3431 -24.67478 -6.48632 2.80009 2.06706
-0.00986 -0.00226 0.00571 -132.36351 -26.01381 1.41356 42.32032 -1.17439 -7.34633 -15.29244 7.73121 -0.40278 -21.1057 -5.05099 -8.81244 28.63162 96.55482 8.3409 1.092 -24.88429 5.79117 3.0714 32.81604 -108.50146 17.69215 -1.31274 26.93858 -2.39234 -5.48921 -20.5744 -7.15286 -5.26524 -3.45929 32.76565 3.96506 0.54971 -24.72219 -6.47456 2.76593 2.04842
-0.01126 -0.00295 0.00631 -132.23441 -26.07014 1.42454 42.39782 -1.21018 -7.24281 -15.15881 7.75136 -0.40324 -20.91571 -4.93421 -8.68351 28.43318 96.46547 8.26774 1.09766 -24.86648 6.03786 2.24265 32.89061 -108.11519 17.56491 -1.24828 26.93601 -2.38783 -5.84224 -20.59997 -7.10623 -5.23889 -3.44424 32.80148 4.0797 0.7801 -24.77736 -6.46139 2.72856 2.02807
-0.01274 -0.00347 0.00686 -132.12953 -26.11815 1.44749 42.48243 -1.24511 -7.18291 -15.03959 7.72723 -0.4038 -20.82135 -4.86072 -8.49962 28.41356 96.40182 8.22127 1.10234 -24.86376 6.17876 1.78895 32.97647 -108.98434 17.80955 -1.39184 26.91627 -2.38637 -6.11927 -20.61817 -7.06858 -5.21749 -3.43238 32.80936 4.17314 0.96214 -24.81611 -6.45122 2.69753 2.01116
-0.01443 -0.00354 0.00729 -132.09693 -26.14637 1.50318 42.5891 -1.27779 -7.24604 -14.95784 7.58221 -0.40461 -20.98428 -4.90594 -8.13235 28.89119 96.4156 8.25788 1.10367 -24.90197 5.99659 2.4694 33.08662 -113.80452 19.23196 -2.18834 26.85302 -2.3912 -6.17357 -20.61609 -7.05655 -5.21038 -3.42988 32.74232 4.20551 0.99416 -24.80979 -6.44908 2.68774 2.00524
-0.0162 -0.00345 0.00767 -132.08755 -26.16556 1.57088 42.70245 -1.30953 -7.35231 -14.89116 7.39255 -0.40552 -21.2433 -4.99488 -7.71512 29.547 96.45402 8.31979 1.10405 -24.95539 5.71375 3.50854 33.20898 -119.79877 21.00108 -3.17967 26.77168 -2.39927 -6.15355 -20.60661 -7.05344 -5.20818 -3.43053 32.64674 4.21702 0.98005 -24.78701 -6.44996 2.68375 2.00254
-0.01793 -0.00342 0.00807 -132.06383 -26.18707 1.6332 42.81108 -1.34168 -7.43677 -14.81866 7.22303 -0.40637 -21.46285 -5.06357 -7.34299 30.11723 96.47647 8.36333 1.10538 -25.00222 5.49902 4.31302 33.33055 -124.91614 22.50576 -4.02677 26.69648 -2.40745 -6.17763 -20.60058 -7.04553 -5.20318 -3.42932 32.56327 4.2401 0.99937 -24.77178 -6.4496 2.67443 1.99726
-0.01968 -0.00343 0.00849 -132.05631 -26.21664 1.69536 42.92679 -1.3741 -7.53088 -14.74094 7.05433 -0.40726 -21.66856 -5.13302 -6.87944 30.708 96.5186 8.43466 1.10481 -25.04786 5.1918 5.41436 33.43351 -131.4556 24.45235 -5.10466 26.63074 -2.40978 -6.16065 -20.59423 -7.04046 -5.2003 -3.42974 32.484 4.25474 0.96922 -24.7562 -6.44879 2.67591 1.99644
-0.02141 -0.00334 0.00886 -132.02033 -26.2266 1.76052 43.02941 -1.40549 -7.61482 -14.67877 6.87297 -0.40811 -21.92122 -5.21241 -6.59041 31.29728 96.52624 8.45569 1.10761 -25.0994 5.0507 5.99036 33.57628 -135.34855 25.57322 -5.75392 26.54013 -2.42403 -6.2082 -20.58672 -7.03199 -5.1945 -3.42774 32.38845 4.28149 1.0271 -24.73749 -6.44954 2.65702 1.9874
-0.02307 -0.00298 0.0091 -131.90235 -26.19113 1.83269 43.09309 -1.43637 -7.66209 -14.64551 6.67108 -0.40888 -22.31828 -5.29997 -6.82516 31.85318 96.42299 8.3158 1.12229 -25.16527 5.41615 4.95772 33.8425 -131.31763 24.21788 -5.12016 26.39378 -2.47958 -6.48238 -20.57838 -7.00841 -5.17658 -3.4163 32.26244 4.35164 1.37553 -24.7139 -6.4546 2.57389 1.95222
-0.02473 -0.00254 0.00929 -131.75491 -26.13541 1.90723 43.14336 -1.46581 -7.69708 -14.62876 6.45744 -0.40962 -22.75114 -5.39858 -7.22802 32.40344 96.28333 8.12599 1.13935 -25.23629 5.94794 3.39677 34.14572 -124.64158 22.03892 -4.05773 26.22206 -2.54553 -6.81915 -20.56905 -6.98166 -5.15601 -3.40263 32.12023 4.43391 1.8082 -24.68787 -6.46103 2.47117 1.9091
-0.02641 -0.00216 0.00951 -131.61892 -26.08422 1.97951 43.20075 -1.49462 -7.73661 -14.61187 6.24677 -0.41037 -23.14371 -5.49654 -7.53917 32.94083 96.16997 7.97109 1.15455 -25.30371 6.38838 2.12394 34.42059 -119.39449 20.3116 -3.22568 26.05561 -2.60042 -7.10654 -20.55979 -6.9588 -5.13866 -3.39135 31.97978 4.50733 2.17752 -24.66303 -6.4663 2.38184 1.87141
-0.02801 -0.0017 0.00971 -131.49021 -26.05088 2.05692 43.25489 -1.52907 -7.78277 -14.56657 6.04419 -0.41112 -23.64496 -5.5736 -7.92844 33.53015 96.02706 7.77097 1.1755 -25.37669 6.89182 0.66185 34.74272 -113.23963 18.27535 -2.25104 25.91245 -2.68123 -7.47682 -20.55183 -6.92633 -5.11332 -3.37462 31.85957 4.5937 2.64769 -24.6369 -6.4738 2.27421 1.82634
-0.02975 -0.00137 0.00993 -131.34119 -25.97764 2.12442 43.31146 -1.55111 -7.81075 -14.58148 5.82302 -0.41186 -23.92217 -5.70121 -8.17648 34.03205 95.92321 7.64594 1.18193 -25.43946 7.30485 -0.53738 34.97738 -108.32077 16.67556 -1.4681 25.71816 -2.71163 -7.69393 -20.5411 -6.91247 -5.1035 -3.36837 31.69674 4.65682 2.93263 -24.61355 -6.47714 2.1994 1.79446
-0.03196 -0.00146 0.01033 -131.12446 -25.78031 2.16059 43.38481 -1.54194 -7.7988 -14.78185 5.55026 -0.41253 -23.61245 -5.91991 -8.16326 34.08798 96.05558 7.80024 1.17593 -25.46896 7.42799 -0.87333 34.9399 -107.55819 16.54092 -1.32771 25.35951 -2.59007 -7.44143 -20.5222 -6.95552 -5.14096 -3.39426 31.39208 4.64789 2.64837 -24.59434 -6.46701 2.2249 1.80309
-0.03428 -0.00169 0.01074 -130.89149 -25.5457 2.18713 43.45822 -1.51973 -7.76735 -15.03789 5.26053 -0.41319 -23.06733 -6.19512 -7.97512 34.09626 96.20878 8.02092 1.15099 -25.48818 7.45482 -0.93015 34.81618 -108.11032 16.86202 -1.39312 24.95428 -2.41914 -7.03871 -20.50068 -7.01661 -5.19347 -3.43028 31.04889 4.61618 2.18121 -24.5787 -6.45298 2.28317 1.82486
-0.03651 -0.00184 0.0111 -130.67847 -25.34236 2.22044 43.52911 -1.50187 -7.73991 -15.25309 4.98021 -0.41385 -22.60372 -6.47717 -7.7502 34.2573 96.27053 8.17139 1.11492 -25.51511 7.52593 -1.12152 34.74713 -107.98723 16.93345 -1.35713 24.59177 -2.27772 -6.72584 -20.48097 -7.06611 -5.23653 -3.45988 30.7439 4.59823 1.82332 -24.56441 -6.44178 2.3232 1.8392
-0.03894 -0.00203 0.01167 -130.41228 -25.08358 2.24436 43.61646 -1.49105 -7.73281 -15.53431 4.6902 -0.41447 -22.25151 -6.6318 -8.00357 33.85424 96.66604 8.48761 1.15806 -25.53128 7.60059 -1.29733 34.61766 -108.08681 17.15301 -1.33707 24.14388 -2.1075 -6.32453 -20.45883 -7.12929 -5.29031 -3.49699 30.35743 4.56631 1.36102 -24.53811 -6.42605 2.37662 1.8594
-0.04096 -0.00218 0.01179 -130.25223 -24.92446 2.28473 43.66168 -1.46191 -7.67857 -15.69126 4.41911 -0.41525 -21.60768 -7.05324 -7.24014 34.62799 96.38571 8.47699 1.03694 -25.56499 7.64288 -1.43403 34.58853 -108.08667 17.18675 -1.34135 23.85493 -1.98454 -6.07025 -20.44087 -7.16896 -5.32563 -3.521 30.12362 4.55789 1.0678 -24.53692 -6.41897 2.41024 1.87063
-0.04185 -0.00219 0.01071 -130.39871 -25.11392 2.37984 43.66203 -1.39079 -7.50149 -15.48876 4.18247 -0.4157 -20.23904 -8.29989 -3.50876 38.54566 94.11401 7.53147 0.42207 -25.67016 7.61871 -1.51491 34.89731 -107.33984 16.56562 -1.33587 24.08902 -2.01184 -6.26509 -20.43754 -7.13352 -5.3039 -3.50548 30.39305 4.6199 1.31908 -24.61102 -6.43527 2.38113 1.85389
-0.04233 -0.00215 0.00918 -130.65066 -25.39466 2.49071 43.6085 -1.30098 -7.27725 -15.1594 3.9697 -0.41644 -18.57791 -9.79445 1.20498 43.66703 91.18369 6.25866 -0.34892 -25.78975 7.56482 -1.56634 35.30313 -106.4809 15.75079 -1.35333 24.47298 -2.08712 -6.6118 -20.43811 -7.07475 -5.26345 -3.47661 30.80579 4.7061 1.74018 -24.70904 -6.46062 2.33114 1.82775
-0.04298 -0.00213 0.00784 -130.84863 -25.58951 2.58952 43.53059 -1.2158 -7.07294 -14.89019 3.76035 -0.41758 -17.03887 -11.10769 5.3339 48.31953 88.63425 5.14567 -1.01925 -25.88893 7.52383 -1.63931 35.63738 -105.79423 15.04954 -1.38186 24.7385 -2.13509 -6.88423 -20.43523 -7.03063 -5.23325 -3.45448 31.10334 4.78145 2.06167 -24.7916 -6.48284 2.29075 1.80588
-0.0437 -0.00212 0.00653 -131.07272 -25.96392 2.70788 43.65163 -1.14522 -6.87414 -14.61364 3.48982 -0.41654 -15.5483 -12.71064 10.0441 52.65752 85.74257 3.98546 -1.81636 -26.04517 7.48118 -1.66887 36.08177 -104.67043 14.25876 -1.33295 25.20762 -2.20376 -7.1728 -20.43912 -6.97062 -5.19652 -3.42989 31.60361 4.85625 2.47193 -24.89353 -6.501 2.25072 1.78428
-0.04418 -0.00209 0.00507 -131.26619 -25.99479 2.79039 43.35471 -1.04154 -6.65311 -14.31993 3.35305 -0.42001 -13.87667 -13.77097 13.78583 57.91555 83.40528 2.84844 -2.38536 -26.0875 7.43737 -1.78488 36.32452 -104.37498 13.5989 -1.44011 25.29797 -2.24237 -7.4669 -20.43015 -6.93723 -5.16835 -3.40706 31.72532 4.93718 2.73952 -24.96093 -6.52953 2.20493 1.75994
-0.04405 -0.00204 0.00332 -131.36206 -24.98309 2.76131 41.83717 -0.83743 -6.3806 -14.02329 3.57639 -0.43672 -11.89733 -13.24852 14.51357 65.60207 82.77537 1.82597 -2.29442 -25.79963 7.38762 -2.15163 35.95603 -106.73326 13.38093 -2.04317 24.22724 -2.17747 -7.72898 -20.3824 -6.98918 -5.17205 -3.39284 30.68765 5.03845 2.57692 -24.92558 -6.58699 2.14497 1.72851
-0.04368 -0.00197 0.00145 -131.42119 -23.63564 2.69717 39.91545 -0.60324 -6.08773 -13.71116 3.93425 -0.45778 -9.72648 -12.17546 14.24907 74.13685 82.72313 0.84344 -1.96758 -25.3989 7.33999 -2.60647 35.38742 -109.86583 13.29434 -2.78952 22.78464 -2.08231 -7.99324 -20.32204 -7.0676 -5.18436 -3.38074 29.2786 5.14361 2.26515 -24.85501 -6.65416 2.08034 1.69491
